<?xml version="1.0" encoding="UTF-8"?>
<svg id="Camada_1" data-name="Camada 1" xmlns="http://www.w3.org/2000/svg" viewBox="0 0 192 192">
  <defs>
    <style>
      .cls-1 {
        fill: #dd979d;
      }

      .cls-2 {
        fill: #371b15;
      }
    </style>
  </defs>
  <rect class="cls-1" x="31.99" y="60.04" width="118.99" height="85.07" rx="42.53" ry="42.53" transform="translate(-14.77 15.39) rotate(-8.9)"/>
  <g>
    <path class="cls-2" d="M134.02,119.62c-.13-.15-.86-.71-.81-.8,1.81-.75,3.49-2.98,3.35-4.99-.15-2.34-1.65-2.86-1.13-5.59.44-2.26,1.13-3.07.27-5.54-.74-2.13-1.9-2.56-3.15-4.07-1.67-2-.66-3.67-1.21-5.87-.58-2.35-3.34-3.63-4.32-5.86-.87-1.97-.87-4.45-1.41-6.58-1.38-5.44-5.28-10.81-11.33-11.17-1.62-.1-1.92.27-3.26.53-.63.12-1.41-.1-2.28.09-2.51.54-4.85,2.32-6.57,4.15-.52-2.17-2.2-4.04-4.49-4.26-1.05-3.52-5.15-4.85-8.3-3.2-.53-.49-1.22-.76-1.92-.88-2.62-.45-6.48.33-8.24,2.46-.12.15-.39.67-.46.71-.19.1-.48-.02-.71.03-2.4.46-4.17,2.73-4.13,5.15-2.63.4-4.16,3.8-2.82,6.09-.49.76-1.18,1.43-.99,2.43-2.95-.48-5.37-1.2-8.36-.33-10.96,3.17-8.08,15.66-10.12,24.1-.74,3.05-1.96,5.8-2.16,9-.18,2.93.38,6.99,3.29,8.45l.4,1.93c-1.06.78-1.4,2.19-1.52,3.44-.29,2.99.89,7.01,3.87,8.27.28.12.83.14.92.38.17.46.3,1.78.37,2.34.16,1.29.23,2.58.27,3.87.27.12.55.24.82.36-.09-2.09-.29-4.11-.5-6.26,0-.09-.06-.18-.11-.25l.1-.15c.68.2,2.21-.42,2.15-1.22-.01-.19-.22-.43-.14-.57.93-.45,1.38-1.29.63-2.16,1.06-.89.19-1.95-.82-2.36.4-.38.15-1.12-.23-1.44-.73-.61-4.18-1.39-4.42-1.9-1.13-4.1-2.38-8.79.02-12.67,1.09-1.76,2.79-2.92,4.03-4.54l.14.02c1.9,2.24,4.86,4.27,7.9,4.32,1.15.02,3.04-.44,3.05-1.89,0-.44-.21-1.02-.23-1.48,3.15.71,6.02,3.98,7.41,6.79.82,1.67.67,2.87.96,4.63.2,1.25.47,2.5.98,3.66l-1.29-.6c-.61-2.47-1.33-4.94-2.53-7.19-.3-.57-.91-1.89-1.26-.57,1.32,2.27,2.28,4.76,2.85,7.33-3.55-1.69-6.51-4.31-9.75-6.47-.7-.47-3.08-2.02-3.78-2.12-.13-.02-.25-.04-.36.06-.09.13-.15.3-.1.46.08.27,1.78,1.06,2.16,1.29,2.94,1.79,5.65,4.04,8.6,5.87,5.99,3.72,11.54,5.18,18.66,4.39,1.45-.16,3.47-.76,4.83-.74,1.11.02,1.55,1.16,1.59,2.12-2.49.73-5.05,1.26-7.59,1.74-.98.18-2.53.21-3.37.72-.2.12-.41.31-.48.53-1.65-.46-3.03-1.76-4.7-2.16-1.26-.3-4.79-.66-5.99-.4-1.4.3-1.18,1.64-.06,2.17l1.74.61c-.34.03-.69.04-1.02.04-1.19,0-3.01-.33-4.11-.15-.46.08-1.26.44-1.17,1h-.13c-1.94-.78-3.86-1.65-5.7-2.64-1.61-.86-3.36-1.89-4.88-2.9-.39-.26-2.59-1.98-2.77-1.99-.38-.04-.52.45-.18.8.74.75,2.62,1.91,3.57,2.52,3.16,2.03,6.54,3.69,10,5.15l.05.04c-.45.48-.26,1.14.09,1.62.15.2.56.47.61.59.25.52-.09.78.65,1.4.95.8,1.71,1.54,2.91,2.01,1.55.61,3.25.68,4.9.64.32,1.74.69,3.46.92,5.22l.83-.13c-.14-1.39-.46-3.11-.71-4.39-.05-.28-.23-.54-.23-.83.64-.09,1.28-.23,1.9-.4.89-.25,3.51-1.37,4.21-1.27.16.02.36.26.55.34.68.29,3.03.17,3.88.13,4.55-.18,9.44-.87,13.75-2.36,1.35-.47,2.67-1.04,3.95-1.69l.56,6.12.81-.13-.57-6.39c3.31-1.99,6.25-4.56,8.91-7.33,3.84-3.99,7.17-8.49,9.82-13.35.08-.21-.02-.38-.21-.47-.35-.11-.53.28-.7.52-1.33,1.93-2.29,3.96-3.76,5.93-4.01,5.38-9.82,11.86-15.94,14.77-5,2.38-11.25,3.39-16.76,3.58-.48.02-3.35.08-3.55-.1-.7-1.32-1.08-2.93-1.06-4.43.01-.83.13-1.46,1.04-1.71,1.19-.32,2.71-.38,3.95-.62,4.41-.85,9.63-3,14.07-2.62,1.68.14,2.97.68,4.67,0,.82-.33,1.66-1.01,1.18-1.96,1.07-.26,1.74-.83,1.41-2-.03-.1-.17-.2-.18-.27-.02-.21.71-.53.24-1.34-.35-.61-1.24-.59-1.3-.66-.06-.07-.04-.3-.12-.43-.38-.62-1.23-.69-1.85-.95,1.94-2.3,3.7-4.72,5.35-7.23.76-1.16,1.42-2.41,2.2-3.56.89-1.33,1.92-2.58,2.85-3.89.03-1.13-.64-.47-1.06.02-2.15,2.49-3.78,5.74-5.61,8.47-.61.91-4.31,6-4.97,6.22l-1.6.19c-1.4-3-.87-6.35-.08-9.43.13-.5.88-2.61.85-2.88-.02-.16-.09-.26-.24-.32l-.49.12-1.25,4.06c-1.06-3.81.71-8.05,3.44-10.73.21-.21.82-.81,1.04-.91.21-.1.17.23.17.36-.05,1.37-1.07,3.13.67,4.15,2.56,1.51,6.79-1.91,8.63-3.57,1.26-1.13,2.38-2.37,3.34-3.77,1.48.53,3.04,1.19,4.24,2.23,3.93,3.37,4.36,11.04,4.01,15.87-.09,1.19.03,2.07-.95,2.89-1.05.88-3.7,1.49-2.55,3.27-.81.25-1.7,1.14-1.29,2.05.11.25.58.55.59.59,0,.03-.17.25-.18.42-.06.75.45,1.37,1.21,1.4-.53,1.99,2.45,1.78,3.59,1.18.42,1.35.94,2.66,1.49,3.96.22-.17.43-.34.64-.51-.54-1.3-1.03-2.61-1.39-3.97,2.81-1.99,3.02-7.28.81-9.74ZM82.73,140.8c-2.06.46-4.29.47-6.31-.11-.04-.17.17-.1.26-.09.66.11,1.94.4,2.57.25.3-.07.37-.38.14-.59-.09-.08-1.69-.14-2.02-.18-1.15-.16-2.55-.52-3.54-1.15-.16-.1-.87-.56-.76-.76,1.26.51,2.91.95,4.28,1.05.45.03,1.63.18,1.66-.41.03-.5-1.41-.32-1.82-.36-1.1-.11-4.56-.77-5-1.87-.07-.18-.08-.37-.11-.56.04-.07,1.18.44,1.35.5,1.01.32,3.01.72,4.04.67.28-.02,1.04-.05,1.06-.4,0-.09-.09-.25-.18-.29-.26-.11-1.71-.1-2.17-.16-1.32-.16-2.85-.47-3.95-1.24-.1-.44.29-.63.66-.69.97-.15,2.82.19,3.92.19,1.01,0,2.36-.03,3.33-.31.24-.07.42-.18.53-.42,0-.34-1.81-.61-2.16-.72-.46-.14-2.11-.61-2.31-.98-.05-.09-.06-.19-.06-.29.16-.03.3-.14.47-.16,1.19-.14,4.71.36,5.93.7,1.49.42,2.59,1.49,4.08,1.87-.07,1.7.14,3.43.8,5.01-1.59.34-3.09,1.11-4.69,1.47ZM110.09,70.41c-.11.22-.39.4-.54.6-.54.72-.94,1.68-.99,2.57-3.42.58-6.59,4.32-7.11,7.65-.25,1.57-.02,2.72.16,4.25.01.11.12.32-.04.33-1.45-2.77-1.35-6.9.1-9.66,1.58-3,5.06-5.34,8.42-5.74ZM102.18,84.47c-.03-.32-.1-1.52,0-1.75.41-1,2.84-1.15,3.62-.38.76.76.69,2.66.59,3.69-.11,1.12-.91,3.11-.54,4.1.37.98,1.98.96,2.81.73.3-.08.66-.25.65-.61-.03-.6-.65-.22-.95-.17-2.86.45-1.59-1.59-1.29-3.25.51-2.85.18-6.59-3.71-5.72-.47.1-.66.28-1.04.44-.12.05-.17.02-.15-.11.41-2.89,3.49-6.65,6.54-6.95.57,1.94,2.71,2.46,4.22,3.43.47.3,1.01.73,1.41,1.12,1.35,1.31,2.87,4.4,4.73,4.85.65.16.56-.29.86-.63.99-1.12,2.18-.61,2.57.72.45,1.53-.44,4.06-2.19,4.33-.32.05-.68-.1-.91.13-.1.1-.6,2.27-.76,2.7-1.19,3.15-3.88,5.94-7.23,6.73-6.03,1.42-8.81-5.66-9.03-10.48-.02-.33.14-.58.14-.85,0-.62-.25-1.41-.32-2.06ZM71.25,81.32c.22-.37.95-.9.96-1.2,0-.13-.36-.61-.45-.82-.56-1.38,0-3.17,1.19-4.04.62-.45,1.04-.27,1.61-.5.52-.21.27-1.04.34-1.58.23-1.58,1.57-3.08,3.13-3.44.43-.1,1.06.05,1.31-.07.32-.15.36-.67.55-.96,1.24-1.95,5.94-2.76,7.99-2.04.43.15,1.26.82,1.46.83.46.01.83-.43,1.3-.56,2.21-.62,4.79.04,5.84,2.22.17.36.3,1.2.51,1.37.47.2.97.09,1.49.25,1.51.46,2.91,2.52,2.9,4.08,0,.26-.73,1.55-.9,1.97-1.32,3.42-1.21,7.44,1.09,10.43l.28,2.51c-.24.43-.71.55-1.1.78.03,1.76-1.32,3.25-3.15,3.07,1.38-4.07,1.2-8.47.41-12.66.33.24,1.28.45,1.26-.16-.01-.55-.56-.46-.9-.62-1.09-.49-1.84-1.6-1.94-2.8-.05-.57.46-1.65-.47-1.54-.29.03-.5.24-.78.31-1.29.31-3.58.44-4.31-.96-.21-.41-.17-1.19-.72-1.2-.4,0-.68.39-1.05.58-1.64.82-4.32.73-5.64-.66-.38-.4-.5-1.01-1.05-1.05-.55.03-.37,1.14-.45,1.59-.36,1.94-1.97,3.51-3.79,4.16-.27.1-.91.09-1.02.37-.13.32.4,1.09.46,1.52.14.96-.28,2.35-1,3.01-.44.41-1.47.54-1.43,1.09.06.96,1.6-.22,1.68-.16.48,3.62,1.41,7.47,3.36,10.59.27.43.62.81.88,1.24-1.25.44-2.43.24-3.19-.91-.13-.2-.19-.57-.37-.7-.21-.15-.73,0-.92-.27-.35-.51-.01-1.13.04-1.64.35-3.68-.85-7.26-4.09-9.26-.27-.17-1.49-.66-1.54-.72-.29-.33-.01-1.12.19-1.45ZM76.66,95.32c.13-.02.34-.03.44.04.12.09.52.86.8,1.13,1.11,1.06,2.42.91,3.75.35.27.32.62.68.94.94.78.63,1.6.8,1.6,1.96,0,1.78-2.24,2.17-3.49,2.7-1.55.66-3.14,1.32-4.51,2.32-.26-.96.25-1.87.43-2.83.39-2.16.26-4.44.02-6.62ZM84.82,99.28c.57.17,1.1.44,1.68.58,3.4.84,6.73-.4,9.08-2.91.18,2.04,2.03,3.24,3.97,3.06-.17,1.49-1.19,3-2.24,4.05-3.98,3.94-12.3,4.12-15.24-1.16,1.59-.64,3.24-1.62,2.75-3.61ZM89.18,99.24c-6.56.57-9.91-6.54-11.02-11.93-.12-.6-.6-3.14-.54-3.58.02-.13.39-.63.47-.85.48-1.14.59-2.27.12-3.45,2.22-.44,4.31-2.59,4.57-4.85,2.01,1.67,4.91,1.83,7.16.53.76,2.27,3.65,2.49,5.61,1.79-.05,1.11.32,2.01.96,2.89.14.2.47.44.55.56.19.31.61,3.39.67,3.98.62,6.22-1.05,14.26-8.56,14.91ZM53.43,126.63c-.05.31.23.7.24.93.02.34-.54.42.15.99.94.78,2.91,1.05,4.04,1.55.27.12,1.02.62.67.94-.28.27-2.75-.03-3.24-.14-.48-.11-.93-.34-1.41-.47-.94.71,1.32,1.23,1.82,1.32.99.17,2.13.04,3.07.26.5.11,1.11.36.87.99-.14.07-.3.16-.45.19-.78.11-2.21.16-3,.07-.37-.04-1.7-.46-1.82-.41-.28.12-.24.54,0,.73.43.34,2.36.54,2.95.53.55,0,1.32-.19,1.78-.16.51.03.78.59.36.94-.58.49-2.53.43-3.29.35-.3-.03-1.11-.39-1.27-.01-.29.69,1.56.84,1.93.85.5.02,1.56-.17,1.88.16l.05.2c-.58.72-2.36.45-3.1.05-2.82-1.52-3.81-5.76-2.94-8.66.03-.12.5-1.37.71-1.19ZM53.61,115.35c-.94,1.77-1.33,3.79-1.22,5.79.02.45.05.99.22,1.39-1.07-.56-1.64-1.94-1.94-3.06-1.4-5.23,1.3-9.95,2.27-14.94,1.26-6.47-.48-14.36,4.94-19.29,3.61-3.28,7.73-3.16,12.17-1.94,3.76,1.03,5.76,4.28,6,8.07l-1.02-1.92c-.99-1.91-3.12-2.73-4.55-4.01-.38-.34-.67-1.08-1.26-.68-.21.15-.3,1.14-.4,1.46-.97,3.11-5.41,5.21-7.68,7.67-.22.24-1.37,1.83-1.61,1.72-1.58-2.18-4.09-.8-4.31,1.6-.19,2.13,1.02,4.85,3.39,5.06.21.02.55-.15.67.07.5,1.89.64,3.96-.07,5.81-1.12,2.92-4.11,4.46-5.58,7.22ZM68.27,113.96c-1.67.9-4.63-.25-6.12-1.2-.51-.32-2.97-2.28-2.95-2.78.95-1.58,1.36-2.99,1.35-4.83,0-.12,0-.29.15-.16,1.69,2.66,4.83,4.38,7.97,4.55.11.09-.09,2.32-.03,2.72.1.71.58,1.2-.37,1.71ZM60.41,103.05c-.27-.62-.35-1.15-.55-1.76-.21-.2-.74.11-1.12.11-2.3.02-3.61-4.17-1.96-5.69.52-.48,1.14-.46,1.69-.04.58.44.67,1.21,1.62.71.36-.19,1.31-1.55,1.68-1.96.45-.5.93-.98,1.43-1.42,2.42-2.15,5.74-3.54,6.63-7.01,2.61,1.58,4.96,3.43,5.76,6.54-.46-.11-.87-.32-1.36-.36-.52-.05-2.73.18-2.39.98.17.4.6,0,.86-.06,1.2-.29,2.22-.15,3.08.77.34,3.92.82,8.35-1.4,11.83-3.64,5.72-11.64,2.6-13.97-2.65ZM73.68,112.98c-1.24-.94-2.57-1.88-4.14-2.11l.06-1.38c2.58,0,4.74-1.87,5.89-4.05.01,2.6-.13,5.43-1.81,7.54ZM110.69,129.71c-.84.21-1.66.18-2.51.12l3.44-1.17c.62.51-.49.94-.93,1.05ZM111.71,123.79s.17.21.16.22c-2.02.08-4.09.49-5.84,1.53-.12.26.12.6.41.52,1.77-.85,3.78-1.38,5.76-1.25.32.02,1.03.02,1.13.41.02.14-.03.34-.16.41-.4.21-2.08.3-2.68.43-.55.12-3.67,1.1-3.74,1.57-.04.27.21.48.47.42.63-.27,1.26-.54,1.92-.75.71-.23,1.65-.51,2.37-.66.51-.11,2.29-.45,1.42.56-.54.63-3.87,1.44-4.9,1.83-.28.11-.84.47-1.03.51-.23.04-.74-.09-1.04-.09-2.27.02-4.39.39-6.6.93,0-.65-.27-1.1-.54-1.66,2.55-.97,4.1-3.22,6.66-4.25,1.23-.5,5.18-1.57,6.24-.68ZM108.47,104.08c-2.31,2.94-3.68,6.7-2.77,10.46.12.47.46,1.03.51,1.48.05.46-.15,1.2-.17,1.71-.07,1.87.23,3.73.83,5.5-2.72.39-4.43,2.37-6.55,3.77-.23.15-1.81,1.13-1.93,1.14-.13.02-.61-.31-.84-.37-1.1-.29-2.18.11-3.22.28-3.92.63-7.86.8-11.75-.03-.45-.1-2.43-.57-2.68-.79-.26-.24-.8-1.91-.91-2.34-.45-1.67-.69-3.57-.73-5.3-.03-1.42.21-2.84.14-4.25l-.41-.16-.28.27-.26,2.55c-.73-1.68-1.98-3.04-3.16-4.41,1.06-1.4,1.65-3.11,1.87-4.84.13-1.04.06-2.09.18-3.13,1.53-1.03,3.19-1.88,4.94-2.47,1.54,2.96,5.04,4.68,8.33,4.66,5.01-.04,9.52-2.66,10.85-7.67,3.14.05,6.34.98,8.82,2.95.08.12-.69.84-.81,1ZM110.03,102.58c-2.22-1.78-4.83-2.75-7.64-3.13-1.33-.18-4.08-.03-5.07-.79-.64-.5-1.23-1.76-1.12-2.56.04-.3,1.02-1.27,1-1.77,1.84.31,3.37-.43,4.01-2.2.09-.24.22-1.08.26-1.12.02-.03.55-.31.58-.29.83,3.81,3.62,8.46,8.07,8.11l.91,2.84c0,.32-.83.57-1.01.93ZM121.94,101.19c-1.48,1.72-5.25,4.94-7.42,5.48-1.66.42-3.07.19-2.86-1.85.04-.38.21-.78.26-1.16.24-1.77-.44-3.23-.89-4.9,3.44-.62,6.22-3.1,7.77-6.14.23-.13.03.17.03.18.11.68.17,1.5.34,2.15.46,1.82,1.99,4.02,3.85,4.59.15.16-.91,1.44-1.08,1.64ZM131.24,105.34c-1.92-4.61-4.51-4.64-8.3-6.71-3.27-1.79-3.73-6-2.91-9.31,2.52-.58,3.88-3.11,3.27-5.58-.38-1.52-1.8-2.5-3.3-1.69-.58.31-.68,1.03-1.32.71-1.3-.65-2.93-3.68-4.4-4.87-1.93-1.57-6.32-2.46-4.4-5.84,2.73-4.81,10.03-.51,12.37,2.76,2.62,3.65,2.51,6.56,3.43,10.67.67,3.02,2.01,3.53,3.77,5.62,1.95,2.33.88,3.35,1.35,5.81.59,3.12,4.18,3.68,4.49,7.66.14,1.71-.94,3.45-.83,5.2.12,1.86,1.61,2.81,1.2,4.93-.31,1.6-1.46,2.7-2.84,3.45.2-4.2.04-8.88-1.59-12.81ZM129.51,129.18c-.04-.09.15-.33.17-.34.62-.1,1.49-.16,2.06-.32.18-.05,1.25-.56,1.37-.67.23-.23.23-.45-.03-.65-.18-.08-1.61.6-1.99.69-.54.13-2.96.47-2.66-.59.12-.44.47-.26.77-.3,1.08-.15,2.15-.33,3.14-.82.34-.17,1.22-.64.85-1.06-.32-.28-1.12.36-1.51.51-.58.23-3,.78-3.48.56-.37-.17-.28-.56-.03-.81.58-.61,2.6-.9,3.49-1.27.48-.2,1.76-.75,1.09-1.35-.68.25-1.3.63-1.99.85-.39.12-1.21.44-1.52.18-.49-.42-.01-.73.33-.97.91-.62,2.18-1.07,2.85-1.97.16-.22.44-1.04.61-1.07,2.25,2.2,2.17,6.38.06,8.63-.83.88-2.52,1.54-3.59.78Z"/>
    <path class="cls-2" d="M81.1,82.93c1.25-.94,3.45-1.44,4.36.16.54.95.76,2.5.78,3.59.02,1.11-.58,3.18.47,3.9.68.47,2.08.33,2.7-.16.29-.23.13-.74-.25-.74-.57,0-1.86.99-2.24-.2-.21-.64.18-2.33.11-3.19-.17-2.12-.78-5.26-3.52-5.11-1.44.08-3.4.93-3.88,2.38.42.78,1.04-.32,1.47-.65Z"/>
    <path class="cls-2" d="M91.09,92.76c-1.31,1.07-3.1,1.2-4.64.64-.27-.1-.74-.47-.98-.37-.13.06-.28.37-.24.52.11.45,1.25.79,1.66.88,1.65.36,3.95,0,5.1-1.33.22-.26.62-.71.26-1.01-.42-.34-.85.42-1.16.67Z"/>
    <path class="cls-2" d="M93.36,80c-1.06-.3-2.66-.21-3.57.45-.22.16-.73.72-.32.9.18.08,1.19-.5,1.52-.58.74-.19,1.64-.13,2.35.12.52.18,1.15.85,1.6.61.83-.45-1.23-1.4-1.58-1.5Z"/>
    <path class="cls-2" d="M94.34,83.99c-.53-.27-.64.47-1.05.76-.85.6-1.69.39-2.35-.36-.13-.05-.34.03-.41.14-.25.34.18.81.45,1.01.91.67,2.19.43,3.01-.27.31-.27.91-.98.34-1.27Z"/>
    <path class="cls-2" d="M84.86,85.66c-.48-.41-.72.35-1.16.6-.51.29-1.05.35-1.61.13-.38-.14-.61-.6-1.03-.39-.4.19-.12.58.1.8.59.56,1.6.65,2.36.45.51-.14,2.01-1,1.33-1.58Z"/>
    <path class="cls-2" d="M92.69,90.19c-.17-.11-.86-.46-1.02-.42-.95.23.68,1.01.9,1.23.48.45.74,1.1,1.18,1.54l.3-.08c.18-.85-.69-1.84-1.37-2.27Z"/>
    <path class="cls-2" d="M84.75,91.31c-.42.18-.87,1.17-.97,1.6-.07.3-.24,1.42.23,1.43.32,0,.27-.73.33-.94.07-.27.17-.57.29-.82.12-.25.61-.85.63-.98.05-.37-.22-.42-.51-.29Z"/>
    <path class="cls-2" d="M106.74,93.58c1.34.71,3.29.35,4.55-.4.33-.2,1.26-.88,1.16-1.3-.06-.23-.31-.32-.52-.23-.18.08-.64.6-.91.77-.86.54-2.04.83-3.05.69-.42-.06-1.35-.54-1.53-.52-.8.08-.09.79.31,1Z"/>
    <path class="cls-2" d="M110.81,81.7c1.03-.27,2.14-.16,3.07.34.34.18.69.73,1.13.42.6-.43-.72-1.16-1.04-1.3-1.15-.51-2.95-.6-4.05.05-.29.17-.66.54-.28.83.23.17.87-.25,1.18-.33Z"/>
    <path class="cls-2" d="M113,85.28c-1.03.53-1.52.13-2.29-.53l-.34.12c-.34.37.3.96.61,1.15.84.5,2.35.33,3.01-.42.2-.23.37-.71.06-.91-.34-.22-.73.41-1.06.58Z"/>
    <path class="cls-2" d="M103.51,86.46c.78.39,1.77.13,2.35-.5.21-.23.49-.7.13-.94-.45-.3-.71.46-1.12.62-.98.37-1.07-.12-1.79-.51-.65.33-.03,1.11.43,1.34Z"/>
    <path class="cls-2" d="M71.4,94.96l-.44.17c-.11,1.24.29,2.41.76,3.54.31.74,1.25,1.86-.03,2.28-.63.21-.77-.07-1.21-.05-.55.03-.47.86.45.92.85.05,2.19-.37,2.21-1.4.01-1.24-1.06-2.51-1.31-3.76-.07-.36.03-1.64-.43-1.7Z"/>
    <path class="cls-2" d="M71.33,103.79c-.74.16-1.71.09-2.44-.16-.39-.13-1.27-.87-1.55-.48-.05.06-.05.15-.06.23.95,1.33,3.01,1.48,4.5,1.07.31-.09,1.59-.62,1.1-1.04-.29-.25-1.13.3-1.55.39Z"/>
    <path class="cls-2" d="M67.09,93.23c.39-.03,1.65.36,1.47-.36-.17-.67-2.07-.39-2.55-.27-.65.17-1.27.5-1.8.92-.28.22-.95.72-.68,1.1l.23.13c.35.05.98-.67,1.36-.89.6-.35,1.27-.58,1.97-.63Z"/>
    <path class="cls-2" d="M68.23,96.58l-.34-.08c-.23.06-.44.62-.78.79-.45.23-1.09.23-1.54-.02-.33-.18-.39-.57-.82-.36-.89.43.92,1.39,1.58,1.38.84-.01,2.39-.71,1.89-1.72Z"/>
    <path class="cls-2" d="M74.03,97.45c.64-.06,1.8-.88,1.21-1.56-.37-.22-.46.23-.58.34-.36.34-.66.55-1.16.31-.3-.14-.68-.87-1-.5-.35.84.8,1.47,1.54,1.4Z"/>
    <path class="cls-2" d="M57.42,97.5l.26,1.66c.03.22.52.94.84.7.34-.25-.08-.71-.15-1-.15-.61-.04-1.92-.96-1.36Z"/>
  </g>
</svg>